# AST/ASF file generated using VICON BodyLanguage
# -----------------------------------------------
:version 1.10
:name VICON
:units
  mass 1.0
  length 0.45
  angle deg
:documentation
   .ast/.asf automatically generated from VICON data using
   VICON BodyBuilder and BodyLanguage model FoxedUp or BRILLIANT.MOD
:root
   order TX TY TZ RX RY RZ
   axis XYZ
   position 0 0 0  
   orientation 0 0 0 
:bonedata
  begin
     id 1 
     name lhipjoint
     direction 0.603808 -0.713975 0.35448 
     length 2.2025 
     axis 0 0 0  XYZ
  end
  begin
     id 2 
     name lfemur
     direction 0.34202 -0.939693 0  
     length 6.55877  
     axis 0 0 20  XYZ
    dof rx ry rz
    limits (-160.0 20.0)
           (-70.0 70.0)
           (-60.0 70.0)
  end
  begin
     id 3 
     name ltibia
     direction 0.34202 -0.939693 0   
     length 6.80302   
     axis 0 0 20   XYZ
    dof rx
    limits (-10.0 170.0)
  end
  begin
     id 4 
     name lfoot
     direction 0.091848 -0.25235 0.963267   
     length 2.03446   
     axis -90 7.62852e-016 20   XYZ
    dof rx rz
    limits (-45.0 90.0)
           (-70.0 20.0)
  end
  begin
     id 5 
     name ltoes
     direction 1.53608e-011 -4.21925e-011 1   
     length 1.02033   
     axis -90 7.62852e-016 20   XYZ
    dof rx
    limits (-90.0 20.0)
  end
  begin
     id 6 
     name rhipjoint
     direction -0.587285 -0.724947 0.359928   
     length 2.16916  
     axis 0 0 0  XYZ 
  end
  begin
     id 7 
     name rfemur
     direction -0.34202 -0.939693 0   
     length 6.43173   
     axis 0 0 -20   XYZ
    dof rx ry rz
    limits (-160.0 20.0)
           (-70.0 70.0)
           (-70.0 60.0)
  end
  begin
     id 8 
     name rtibia
     direction -0.34202 -0.939693 0   
     length 6.70662   
     axis 0 0 -20   XYZ
    dof rx
    limits (-10.0 170.0)
 end
 begin
     id 9 
     name rfoot
     direction -0.11854 -0.325686 0.938018   
     length 2.0773  
     axis -90 -7.62852e-016 -20   XYZ
    dof rx rz
    limits (-45.0 90.0)
           (-20.0 70.0)
  end
  begin
     id 10 
     name rtoes
     direction -1.53547e-011 -4.21838e-011 1   
     length 1.03267   
     axis -90 -7.62852e-016 -20   XYZ
    dof rx
    limits (-90.0 20.0)
  end
  begin
     id 11 
     name lowerback
     direction -0.0286554 0.999539 0.0100613   
     length 2.08751   
     axis 0 0 0   XYZ
    dof rx ry rz
    limits (-20.0 45.0)
           (-30.0 30.0)
           (-30.0 30.0)
  end
  begin
     id 12 
     name upperback
     direction 0.0227093 0.999705 -0.00860929   
     length 2.08517   
     axis 0 0 0   XYZ
    dof rx ry rz
    limits (-20.0 45.0)
           (-30.0 30.0)
           (-30.0 30.0)
  end
  begin
     id 13 
     name thorax
     direction 0.0351627 0.999285 -0.013892   
     length 2.08412   
     axis 0 0 0   XYZ
    dof rx ry rz
    limits (-20.0 45.0)
           (-30.0 30.0)
           (-30.0 30.0)
  end
  begin
     id 14 
     name lowerneck
     direction -0.0696283 0.997344 0.0213922   
     length 1.44164   
     axis 0 0 0   XYZ
    dof rx ry rz
    limits (-20.0 45.0)
           (-30.0 30.0)
           (-30.0 30.0)
  end
  begin
     id 15 
     name upperneck
     direction 0.0531 0.990412 -0.127531   
     length 1.45022   
     axis 0 0 0   XYZ
    dof rx ry rz
    limits (-20.0 45.0)
           (-30.0 30.0)
           (-30.0 30.0)
  end
  begin
     id 16
     name head
     direction 0.0188154 0.998548 -0.0504727  
     length 1.45845  
     axis 0 0 0   XYZ
    dof rx ry rz
    limits (-20.0 45.0)
           (-30.0 30.0)
           (-30.0 30.0)
  end
  begin
     id 17 
     name lclavicle
     direction 0.961559 0.260051 0.088188  
     length 2.86057  
     axis 0 0 0   XYZ
    dof ry rz
    limits (-20.0 10.0)
           (0.0 20.0)
  end
  begin
     id 18 
     name lhumerus
     direction 1 -4.48959e-011 2.88185e-027   
     length 4.36901   
     axis 180 -30 -90   XYZ
    dof rx ry rz
    limits (-60.0 90.0)
           (-90.0 90.0)
           (-90.0 90.0)
  end
  begin
     id 19
     name lradius
     direction 1 -4.48965e-011 -3.92618e-028   
     length 3.21737   
     axis 180 -30 -90   XYZ
    dof rx
    limits (-10.0 170.0)
  end
  begin
     id 20
     name lwrist
     direction 1 -4.49037e-011 2.57246e-027   
     length 1.60869   
     axis -1.61769e-015 90 90   XYZ
    dof ry
    limits (-180.0 0.0)
 end
  begin
     id 21 
     name lhand
     direction 1 -4.48807e-011 5.12958e-027   
     length 0.564313   
     axis -3.27988e-015 90 90   XYZ
    dof rx rz
    limits (-90.0 90.0)
           (-45.0 45.0)
  end
  begin
     id 22 
     name lfingers
     direction 1 -4.48879e-011 1.02687e-026   
     length 0.454963   
     axis -6.5598e-015 90 90   XYZ
    dof rx
    limits (0.0 90.0)
  end
  begin
     id 23
     name lthumb
     direction 0.707107 -6.3475e-011 0.707107   
     length 0.653239   
     axis -90 45 2.19363e-014   XYZ
    dof rx rz
    limits (-45.0 45.0)
           (-45.0 45.0)
  end
  begin
     id 24 
     name rclavicle
     direction -0.954677 0.253915 0.155304   
     length 3.11497  
     axis 0 0 0   XYZ 
    dof ry rz
    limits (-10.0 20.0)
           (-20.0 0.0)
  end
  begin
     id 25 
     name rhumerus
     direction -1 -4.48958e-011 -8.20169e-028  
     length 4.34118   
     axis 180 30 90   XYZ
    dof rx ry rz
    limits (-90.0 60.0)
           (-90.0 90.0)
           (-90.0 90.0)
  end
  begin
     id 26 
     name rradius
     direction -1 -4.48978e-011 1.5676e-027   
     length 3.09531   
     axis 180 30 90   XYZ
    dof rx
    limits (-10.0 170.0)
  end
  begin
     id 27 
     name rwrist
     direction -1 -4.49001e-011 2.57123e-027   
     length 1.54765   
     axis -1.61769e-015 -90 -90   XYZ
    dof ry
    limits (-180.0 0.0)
  end
  begin
     id 28
     name rhand
     direction -1 -4.48847e-011 5.13225e-027   
     length 0.597446   
     axis -3.27988e-015 -90 -90   XYZ
    dof rx rz
    limits (-90.0 90.0)
           (-45.0 45.0)
  end
  begin
     id 29
     name rfingers
     direction -1 -4.49094e-011 1.02974e-026   
     length 0.481677   
     axis -6.5598e-015 -90 -90   XYZ
    dof rx
    limits (0.0 90.0)
  end
  begin
     id 30
     name rthumb
     direction -0.707107 -6.34859e-011 0.707107   
     length 0.691594   
     axis -90 -45 -2.19363e-014   XYZ
    dof rx rz
    limits (-45.0 45.0)
           (-45.0 45.0)
  end
:hierarchy
  begin
    root lhipjoint rhipjoint lowerback
    lhipjoint lfemur
    lfemur ltibia
    ltibia lfoot
    lfoot ltoes
    rhipjoint rfemur
    rfemur rtibia
    rtibia rfoot
    rfoot rtoes
    lowerback upperback
    upperback thorax
    thorax lowerneck lclavicle rclavicle
    lowerneck upperneck
    upperneck head
    lclavicle lhumerus
    lhumerus lradius
    lradius lwrist
    lwrist lhand lthumb
    lhand lfingers
    rclavicle rhumerus
    rhumerus rradius
    rradius rwrist
    rwrist rhand rthumb
    rhand rfingers
  end

#!OML:ASF I:\Acrobat_Osman\acrobat\cartwheel_test 2\Patient 1\Session 1\acrobat.ASF
:FULLY-SPECIFIED
:DEGREES
504
root 16.4554 13.5947 -6.25957 89.3952 -5.90923 -399.592
lowerback 23.4597 1.25028 -15.4677
upperback 0.545193 -3.15598 -4.52943
thorax -12.0987 -0.716281 4.63627
lowerneck -16.1334 0.459467 -7.85434
upperneck -11.7939 2.08688 5.94573
head -1.24161 1.38905 3.43967
rclavicle -2.8625e-014 -2.22639e-014
rhumerus 30.1949 -33.592 338.32
rradius 75.1785
rwrist -366.399
rhand -41.7165 46.5069
rfingers 7.12502
rthumb -14.622 17.0424
lclavicle -2.8625e-014 -2.22639e-014
lhumerus 20.5768 15.6731 -8.67137
lradius 41.0801
lwrist 85.7246
lhand -36.8956 86.9881
lfingers 7.12502
lthumb -9.97388 -116.732
rfemur -23.6357 11.5842 20.5528
rtibia 18.5932
rfoot -18.5257 -15.063
rtoes 9.32245
lfemur -99.4089 26.6432 0.328105
ltibia 79.2141
lfoot -36.0959 18.6763
ltoes -30.7032
505
root 16.3584 13.5253 -6.70652 86.0231 -7.37265 -399.549
lowerback 23.9442 0.377784 -15.6855
upperback 0.800594 -4.1084 -2.63873
thorax -11.688 -1.09344 7.2467
lowerneck -16.5079 0.919446 -12.9845
upperneck -10.8859 3.74636 8.79802
head -1.04685 2.43868 4.96879
rclavicle -8.26944e-014 -4.77083e-015
rhumerus 33.1987 -29.4505 334.005
rradius 76.1572
rwrist -366.075
rhand -42.9081 46.0401
rfingers 7.12502
rthumb -15.7698 16.6625
lclavicle -8.26944e-014 -4.77083e-015
lhumerus 14.6037 17.0448 -5.61582
lradius 40.3076
lwrist 79.8544
lhand -33.5095 81.7005
lfingers 7.12502
lthumb -6.70603 -111.574
rfemur -26.5726 10.0293 21.079
rtibia 21.151
rfoot -19.5875 -14.7885
rtoes 1.11364
lfemur -98.807 26.6783 -0.0674799
ltibia 82.1571
lfoot -37.0131 18.9204
ltoes -30.269
506
root 16.2453 13.481 -7.12294 82.6217 -9.22494 -399.08
lowerback 24.203 1.99448 -14.3911
upperback 1.96867 -1.84652 -4.0703
thorax -11.0778 -0.309255 4.18172
lowerneck -15.599 0.614508 -5.88648
upperneck -11.2633 1.93586 6.30625
head -1.11491 1.20157 3.17624
rclavicle 8.5875e-014 2.06736e-014
rhumerus 24.0162 -31.028 334.061
rradius 77.3917
rwrist -364.538
rhand -43.5655 45.9222
rfingers 7.12502
rthumb -16.4029 16.5957
lclavicle 8.5875e-014 2.06736e-014
lhumerus 22.2744 19.925 -0.595009
lradius 38.8381
lwrist 74.6076
lhand -30.8714 78.6007
lfingers 7.12502
lthumb -4.15896 -108.54
rfemur -28.2529 8.76986 21.015
rtibia 22.7099
rfoot -21.1061 -16.5665
rtoes 2.40522
lfemur -98.1963 26.6706 -0.973743
ltibia 84.9741
lfoot -37.5433 18.0818
ltoes -28.832
507
root 16.1183 13.4589 -7.51134 79.2338 -11.3082 -398.063
lowerback 24.5599 2.13791 -14.1939
upperback 2.54938 -1.62749 -4.12218
thorax -10.6363 -0.277308 3.95402
lowerneck -15.2766 0.583972 -5.58314
upperneck -10.8168 1.83633 6.8234
head -1.01103 1.12973 3.29278
rclavicle -1.04958e-013 -4.37326e-014
rhumerus 20.899 -30.1119 330.891
rradius 78.5404
rwrist -363.869
rhand -41.6199 46.0568
rfingers 7.12502
rthumb -14.529 16.5855
lclavicle -1.04958e-013 -4.37326e-014
lhumerus 28.5384 27.3803 12.6904
lradius 35.3172
lwrist 58.2273
lhand -29.3147 74.916
lfingers 7.12502
lthumb -2.65566 -104.879
rfemur -29.2681 7.38912 20.4126
rtibia 23.8715
rfoot -23.1659 -19.6079
rtoes -0.251885
lfemur -97.4882 26.3347 -1.95733
ltibia 86.8792
lfoot -36.0086 18.6277
ltoes -31.3286
508
root 15.9735 13.4483 -7.88501 76.181 -13.3343 -396.957
lowerback 24.4607 2.24498 -14.1672
upperback 3.00982 -1.41722 -4.09654
thorax -10.0819 -0.239488 3.90741
lowerneck -15.0164 0.478938 -5.36757
upperneck -10.6583 1.64793 7.12802
head -0.987147 1.01603 3.34865
rclavicle -6.36111e-015 -1.23246e-014
rhumerus 17.5243 -29.0882 328.266
rradius 79.9286
rwrist -363.694
rhand -39.482 46.1562
rfingers 7.12502
rthumb -12.4684 16.5481
lclavicle -6.36111e-015 -1.23246e-014
lhumerus 30.6073 31.2461 20.923
lradius 35.1278
lwrist 46.837
lhand -28.7281 71.7278
lfingers 7.12502
lthumb -2.08909 -101.697
rfemur -30.1864 6.35364 19.474
rtibia 24.8789
rfoot -24.5426 -21.9829
rtoes 0.891743
lfemur -96.8525 26.287 -3.05776
ltibia 88.2287
lfoot -33.8171 19.3858
ltoes -35.1853
509
root 15.8221 13.4491 -8.24036 73.0956 -14.9923 -395.48
lowerback 24.4297 2.21082 -13.9602
upperback 3.41877 -1.33367 -3.90646
thorax -9.60381 -0.252347 3.98771
lowerneck -14.3473 0.411957 -4.84616
upperneck -11.2171 1.44784 6.78181
head -1.26264 0.87094 3.11419
rclavicle 2.54444e-014 6.20208e-014
rhumerus 13.8584 -27.6788 326.558
rradius 81.0116
rwrist -362.928
rhand -38.4164 46.898
rfingers 7.12502
rthumb -11.4409 17.2302
lclavicle 2.54444e-014 6.20208e-014
lhumerus 28.7934 32.1975 23.8995
lradius 37.4077
lwrist 40.6925
lhand -28.4856 69.8281
lfingers 7.12502
lthumb -1.85496 -99.7998
rfemur -30.6839 6.26058 18.1041
rtibia 25.5364
rfoot -25.2247 -23.6779
rtoes 6.17653
lfemur -95.9601 25.9925 -3.88729
ltibia 89.0086
lfoot -32.2504 19.2421
ltoes -37.6281
510
root 15.6725 13.5103 -8.55333 69.9989 -16.2402 -393.621
lowerback 24.6635 2.1251 -13.6483
upperback 3.68942 -1.32881 -3.5448
thorax -9.41121 -0.275487 4.22672
lowerneck -14.8536 -0.100865 -6.31611
upperneck -10.3403 0.989578 7.90577
head -0.86817 0.705583 3.78303
rclavicle 3.81667e-014 -5.68524e-014
rhumerus 9.68655 -25.8935 325.627
rradius 82.4051
rwrist -362.41
rhand -38.4472 46.0203
rfingers 7.12502
rthumb -11.4706 16.3541
lclavicle 3.81667e-014 -5.68524e-014
lhumerus 26.0362 32.521 26.1596
lradius 40.6277
lwrist 36.6952
lhand -28.5056 67.974
lfingers 7.12502
lthumb -1.87426 -97.9455
rfemur -31.0099 5.65951 16.9917
rtibia 26.0184
rfoot -23.4103 -24.9982
rtoes 1.61676
lfemur -94.4686 25.2619 -4.55926
ltibia 88.8895
lfoot -31.2319 18.8248
ltoes -38.4753
511
root 15.4958 13.5727 -8.89064 67.7101 -17.4165 -392.265
lowerback 24.32 2.22488 -13.6445
upperback 3.66997 -1.09519 -3.14975
thorax -9.2806 -0.167204 4.59535
lowerneck -14.6292 -0.469118 -6.40682
upperneck -10.4514 0.483498 7.95101
head -0.902653 0.43987 3.79491
rclavicle 0 -3.4191e-014
rhumerus 5.07616 -23.9759 324.987
rradius 83.8673
rwrist -362.19
rhand -39.6118 46.4039
rfingers 7.12502
rthumb -12.5935 16.8035
lclavicle 0 -3.4191e-014
lhumerus 22.9826 31.8883 26.2565
lradius 43.9538
lwrist 36.2867
lhand -28.6737 66.7343
lfingers 7.12502
lthumb -2.03662 -96.7044
rfemur -31.7118 5.53747 15.9744
rtibia 26.2347
rfoot -22.7162 -23.8741
rtoes -2.13059
lfemur -93.307 25.2662 -5.03491
ltibia 88.2241
lfoot -29.7459 18.9305
ltoes -39.7149
512
root 15.294 13.6677 -9.2332 66.1051 -18.6606 -391.583
lowerback 23.4747 2.48246 -13.8726
upperback 3.55515 -0.660107 -2.88916
thorax -9.03328 0.0346637 4.87713
lowerneck -14.9038 -0.846058 -7.0108
upperneck -10.1807 0.0864157 8.75595
head -0.731362 0.265468 4.19104
rclavicle -1.59028e-014 2.54444e-014
rhumerus 0.379999 -22.0958 324.054
rradius 85.4167
rwrist -361.78
rhand -40.7114 47.3632
rfingers 7.12502
rthumb -13.6535 17.831
lclavicle -1.59028e-014 2.54444e-014
lhumerus 19.7765 31.4331 25.6176
lradius 47.6449
lwrist 37.1131
lhand -28.3933 65.3197
lfingers 7.12502
lthumb -1.7658 -95.2921
rfemur -32.9021 5.9852 15.1446
rtibia 26.4048
rfoot -22.7865 -21.7149
rtoes -4.03995
lfemur -91.8406 26.0272 -5.05596
ltibia 86.842
lfoot -28.6085 18.9967
ltoes -41.1609
513
root 15.0954 13.8077 -9.55797 64.312 -19.5798 -390.447
lowerback 23.0731 2.57014 -13.7973
upperback 3.5564 -0.444063 -2.75802
thorax -8.85746 0.124063 4.91675
lowerneck -15.3668 -1.26009 -7.56381
upperneck -10.1293 -0.302319 10.1038
head -0.511361 0.0895461 4.32508
rclavicle -8.90555e-014 7.15625e-015
rhumerus -4.18174 -20.5206 322.978
rradius 86.7783
rwrist -361.218
rhand -40.7401 48.0931
rfingers 7.12502
rthumb -13.6811 18.5628
lclavicle -8.90555e-014 7.15625e-015
lhumerus 17.348 31.5238 25.2078
lradius 50.9973
lwrist 37.5098
lhand -27.5561 63.0929
lfingers 7.12502
lthumb -0.957205 -93.0705
rfemur -33.8412 6.2737 14.3347
rtibia 26.422
rfoot -22.7098 -19.9899
rtoes -7.84976
lfemur -89.8732 26.0091 -4.74399
ltibia 84.7573
lfoot -28.3383 18.5533
ltoes -41.122
514
root 14.8994 13.9816 -9.87225 62.5034 -20.1831 -388.906
lowerback 22.9965 2.62606 -13.7826
upperback 3.47766 -0.323427 -2.43403
thorax -8.92468 0.195468 5.236
lowerneck -14.8809 -1.65053 -8.0116
upperneck -10.8251 -0.742722 10.6705
head -0.736955 -0.142773 4.564
rclavicle 1.27222e-014 7.95139e-015
rhumerus -8.71051 -19.0362 322.237
rradius 88.0845
rwrist -360.574
rhand -40.3707 48.8242
rfingers 7.12502
rthumb -13.3251 19.2702
lclavicle 1.27222e-014 7.95139e-015
lhumerus 14.6591 31.9831 25.7297
lradius 54.7599
lwrist 36.7184
lhand -26.5813 60.2304
lfingers 7.12502
lthumb -0.0156627 -90.2102
rfemur -34.8132 5.76001 13.8575
rtibia 26.529
rfoot -21.7474 -18.6576
rtoes -12.1867
lfemur -87.8378 25.3797 -4.30401
ltibia 82.0726
lfoot -27.3904 18.1568
ltoes -41.3641
515
root 14.6937 14.1799 -10.189 61.0002 -20.6429 -387.494
lowerback 22.8038 2.75426 -13.9129
upperback 3.36542 -0.1172 -2.00749
thorax -8.98477 0.314884 5.72641
lowerneck -14.1477 -2.08791 -8.63319
upperneck -11.6884 -1.23253 11.1998
head -1.03935 -0.403566 4.82499
rclavicle 2.8625e-014 -3.33958e-014
rhumerus -13.1521 -17.6384 321.413
rradius 89.5597
rwrist -359.93
rhand -39.9635 49.454
rfingers 7.12502
rthumb -12.9326 19.8748
lclavicle 2.8625e-014 -3.33958e-014
lhumerus 12.848 32.1579 25.4877
lradius 57.6161
lwrist 36.6769
lhand -26.1091 58.5783
lfingers 7.12502
lthumb 0.440376 88.5576
rfemur -36.1815 4.48493 14.0114
rtibia 26.774
rfoot -19.8542 -17.3091
rtoes -15.7386
lfemur -85.8328 24.8962 -3.72414
ltibia 78.8862
lfoot -25.3688 17.8738
ltoes -42.5025
516
root 14.4769 14.4169 -10.5037 59.3961 -20.9844 -385.932
lowerback 22.8223 2.86661 -13.9867
upperback 3.42508 0.0379572 -1.77504
thorax -8.95541 0.39012 5.98391
lowerneck -13.8521 -2.67202 -9.27048
upperneck -12.3609 -1.89407 11.9881
head -1.18829 -0.740217 5.16586
rclavicle 6.67916e-014 -7.31528e-014
rhumerus -17.0988 -16.6353 320.067
rradius 90.6399
rwrist -359.073
rhand -39.7923 50.2065
rfingers 7.12502
rthumb -12.7676 20.6169
lclavicle 6.67916e-014 -7.31528e-014
lhumerus 11.1497 32.6348 25.6172
lradius 61.0741
lwrist 36.6171
lhand -26.458 58.05
lfingers 7.12502
lthumb 0.103398 88.0297
rfemur -37.6285 3.06144 14.3767
rtibia 27.3215
rfoot -17.6134 -15.942
rtoes -19.0997
lfemur -83.544 24.2506 -3.1044
ltibia 75.1668
lfoot -22.9252 17.3593
ltoes -43.4728
517
root 14.2469 14.6902 -10.8163 57.6185 -21.2144 -384.151
lowerback 23.2174 2.92492 -14.0773
upperback 3.48837 0.0413878 -1.66629
thorax -9.09221 0.403385 6.15748
lowerneck -13.515 -3.34147 -10.0903
upperneck -12.9858 -2.6429 12.9979
head -1.29833 -1.11765 5.60732
rclavicle -3.81667e-014 1.27222e-014
rhumerus -20.6317 -15.63 318.811
rradius 91.3063
rwrist -358.318
rhand -39.6249 50.7647
rfingers 7.12502
rthumb -12.6062 21.1651
lclavicle -3.81667e-014 1.27222e-014
lhumerus 10.1154 33.2308 25.8081
lradius 64.2777
lwrist 36.6666
lhand -26.6882 57.3022
lfingers 7.12502
lthumb -0.118929 87.2819
rfemur -39.1442 1.66364 14.8441
rtibia 28.2982
rfoot -15.5348 -14.5052
rtoes -21.7611
lfemur -80.8217 23.3509 -2.40629
ltibia 70.8915
lfoot -20.2335 16.3899
ltoes -44.2047
518
root 14.0113 14.9597 -11.1391 56.2874 -21.211 -382.397
lowerback 23.2636 2.81039 -13.8813
upperback 3.38751 -0.0621946 -1.62055
thorax -9.21144 0.365374 6.13036
lowerneck -12.7593 -3.9685 -10.9899
upperneck -13.7948 -3.34569 14.0586
head -1.51216 -1.48653 6.09317
rclavicle 9.54166e-015 -1.59028e-015
rhumerus -23.7942 -14.7999 317.209
rradius 91.7599
rwrist -357.035
rhand -39.1215 50.9334
rfingers 7.12502
rthumb -12.1208 21.3045
lclavicle 9.54166e-015 -1.59028e-015
lhumerus 8.66629 33.9335 27.3359
lradius 68.9323
lwrist 35.6263
lhand -26.0293 55.857
lfingers 7.12502
lthumb 0.51742 85.8361
rfemur -41.5136 0.159291 15.6382
rtibia 29.6358
rfoot -13.5597 -12.9865
rtoes -23.7768
lfemur -78.369 22.512 -1.62049
ltibia 66.2225
lfoot -17.2794 15.0683
ltoes -45.2755
